<svg width="120" height="32" viewBox="0 0 120 32" fill="none" xmlns="http://www.w3.org/2000/svg">
<path fill-rule="evenodd" clip-rule="evenodd" d="M31.7417 30.479V8.27286H23.0334V30.479H31.7417ZM23.0334 0V6.09579H31.7417V0H23.0334ZM11.582 7.27141H10.5588C9.9492 7.27141 9.18723 7.32946 8.27286 7.44557C3.49782 8.56314 1.1103 11.0885 1.1103 15.0218C1.1103 16.2119 1.41509 17.344 2.02467 18.418C3.04064 20.0435 5.23222 21.3062 8.59942 22.2061C11.6618 22.7866 13.193 23.4833 13.193 24.2961C13.193 24.8766 12.5472 25.1669 11.2554 25.1669H10.7112C8.22932 25.1669 5.76197 24.5138 3.30914 23.2076H3.22206C3.13498 23.2221 2.06096 24.8476 0 28.0842V28.1713C3.42525 30.4354 7.19158 31.5675 11.299 31.5675H11.9521C12.6052 31.5675 13.4615 31.5094 14.521 31.3933C19.2961 30.3919 21.6836 27.8665 21.6836 23.8171C21.6836 21.8578 21.0087 20.2903 19.6589 19.1147C18.5849 18.1277 16.3933 17.1843 13.0842 16.2845C10.762 15.7765 9.60087 15.283 9.60087 14.8041C9.76052 14.0493 10.283 13.672 11.1684 13.672H11.7126C12.6851 13.672 13.8824 13.8752 15.3048 14.2816L18.2874 15.1089C20.1887 11.7707 21.1393 10.029 21.1393 9.88389C17.9028 8.14224 14.717 7.27141 11.582 7.27141ZM57.0827 30.479H48.897V18.897C48.897 16.7344 48.1422 15.3991 46.6328 14.8911C46.3135 14.8331 46.0523 14.8041 45.8491 14.8041H45.3266C43.7881 14.8041 42.7721 15.7039 42.2787 17.5036C42.2206 17.7213 42.1916 17.9826 42.1916 18.2874V30.479H33.9187V8.27286H42.1916V11.0595C44.1655 8.67925 46.4006 7.48912 48.897 7.48912H49.5065C53.0914 7.48912 55.5007 9.28883 56.7344 12.8882C56.9666 13.9768 57.0827 14.9637 57.0827 15.8491V30.479ZM59.9782 0.217707V8.27286H57.7794V14.4122H59.9782V18.6357C59.9782 24.0203 61.8433 27.6197 65.5733 29.434C67.6052 30.1306 69.6372 30.479 71.6691 30.479H75.1959V24.492C71.9884 24.3324 70.1379 23.9042 69.6444 23.2076C69.0058 22.3222 68.6865 21.3788 68.6865 20.3774V14.4122H75.1959V8.27286H68.6865V0.217707H59.9782ZM92.1771 7.92453L94.7025 8.44703V16.4586H93.3962C90.029 16.4586 87.8229 17.3875 86.7779 19.2453C86.1393 20.1597 85.82 21.7852 85.82 24.1219V30.479H77.373V8.27286H85.6459V12.8012L86.9521 10.6241C88.3454 8.82438 90.0871 7.92453 92.1771 7.92453ZM104.717 22.8592C104.427 22.119 104.282 21.0885 104.282 19.7678V19.0711C104.282 16.9376 104.862 15.4862 106.023 14.717C106.647 14.5428 107.17 14.4557 107.591 14.4557H108.113C109.971 14.6444 110.9 15.1089 110.9 15.8491C111.248 16.1538 111.451 17.402 111.509 19.5936C111.509 22.5689 110.581 24.238 108.723 24.6009C108.447 24.6009 108.157 24.6299 107.852 24.688C106.284 24.688 105.239 24.0784 104.717 22.8592ZM101.147 30.2613C102.54 30.7837 103.933 31.045 105.327 31.045C107.547 31.045 109.492 30.3483 111.161 28.955H111.248V30.479H119.978L120 8.27286H111.292V10.2758C109.623 8.88244 107.866 8.18578 106.023 8.18578H104.891C101.451 8.18578 98.6647 9.81132 96.5312 13.0624C95.5443 14.7896 95.0508 16.7344 95.0508 18.897V19.1582C95.0508 24.5138 97.0827 28.2148 101.147 30.2613ZM56.93 0.0273438H33.8555V6.07967H56.93V0.0273438Z" fill="url(#paint0_linear_3273_4149)"/>
<defs>
<linearGradient id="paint0_linear_3273_4149" x1="0" y1="15.7837" x2="120" y2="15.7837" gradientUnits="userSpaceOnUse">
<stop stop-color="#6516CC"/>
<stop offset="1" stop-color="#2871FA"/>
</linearGradient>
</defs>
</svg>
